# xmcd CD database file
#
# Track frame offsets:
#	150
#	17880
#	34740
#	75568
#	100156
#	115814
#	134162
#	152520
#	173654
#	196770
#	213606
#	231238
#	259656
#	278984
#	297599
#	314294
#	330722
#	340168
#
# Disc length: 4785 seconds
#
# Revision: 0
# Processed by: cddbd v1.5.1PL2 Copyright (c) Steve Scherf et al.
# Submitted via: CDex 1.51
#
DISCID=0712af12
DTITLE=Collection - Romantic Collection Blues for Love
DYEAR=1900
DGENRE=Blues
TTITLE0=Grand Funk Railroad - It's a Man's World
TTITLE1=Chris Isaak - Blue Spanish Sky
TTITLE2=Stevie Ray Vaughan - Tin Pan Allau
TTITLE3=Dire Straits - You And Your Friend
TTITLE4=Chris Rea - Sing a Song of Love Me
TTITLE5=Gary Moore - Still Got The Blues
TTITLE6=Robert Cray - Move a Mountain
TTITLE7=Santana - Flor D'Luna (Moonflower)
TTITLE8=Kingdom Come - What Love Can Be
TTITLE9=Vaya Con Dios - Forever Blue
TTITLE10=Oscar Benton - Bensonhurst Blues
TTITLE11=Belle Epoque - Sorry
TTITLE12=ZZ Top - Blues Jean Blues
TTITLE13=Tony Joe White - Cold Fingers
TTITLE14=Los Lobos - Someday
TTITLE15=Eric Clapton - Wonderful Tonight (Slowhand)
TTITLE16=Little Blue - Noonwine
TTITLE17=Joe Cocker - You Can Leave Your Hat On
EXTD=
EXTT0=
EXTT1=
EXTT2=
EXTT3=
EXTT4=
EXTT5=
EXTT6=
EXTT7=
EXTT8=
EXTT9=
EXTT10=
EXTT11=
EXTT12=
EXTT13=
EXTT14=
EXTT15=
EXTT16=
EXTT17=
PLAYORDER=
